<svg aria-hidden="true" style="position: absolute; width: 0; height: 0; overflow: hidden;" version="1.1" xmlns="http://www.w3.org/2000/svg" xmlns:xlink="http://www.w3.org/1999/xlink">
<defs>
<symbol id="facebook" width="32" height="32" viewBox="0 0 32 32" fill="none" xmlns="http://www.w3.org/2000/svg">
  <path fill-rule="evenodd" clip-rule="evenodd" d="M7.4888 19.7157V11.0005H10.3111L10.7721 7.12711H7.4888V5.24076C7.4888 4.24335 7.51598 3.2537 9.00264 3.2537H10.5084V0.484202C10.5084 0.442563 9.21502 0.348633 7.90652 0.348633C5.17376 0.348633 3.46264 1.9532 3.46264 4.8999V7.12711H0.443024V11.0005H3.46264V19.7157H7.4888Z" fill="white" />
</symbol>
<symbol id="indeed" width="22" height="21" viewBox="0 0 22 21" fill="none" xmlns="http://www.w3.org/2000/svg">
    <path fill-rule="evenodd" clip-rule="evenodd" d="M21.3291 20.7152H17.3564V13.4806C17.3564 11.496 16.5151 10.3889 15.0065 10.3889C13.3648 10.3889 12.3904 11.5425 12.3904 13.4806V20.7152H8.41771V7.27762H12.3904V8.78883C12.3904 8.78883 13.6369 6.51271 16.4456 6.51271C19.2553 6.51271 21.3291 8.29681 21.3291 11.9891C21.3291 15.6803 21.3291 20.7152 21.3291 20.7152ZM2.60797 3.93006C1.53789 3.93006 0.670868 3.06265 0.670868 1.99296C0.670868 0.924047 1.53789 0.0566406 2.60797 0.0566406C3.67727 0.0566406 4.54429 0.924047 4.54429 1.99296C4.54508 3.06265 3.67727 3.93006 2.60797 3.93006ZM0.670871 20.7152H4.54429V7.80385H0.670871V20.7152Z" fill="white" /></symbol>
<symbol id="google" width="32" height="32" viewBox="0 0 32 32" fill="none" xmlns="http://www.w3.org/2000/svg">
     <path fill-rule="evenodd" clip-rule="evenodd" d="M18.2691 7.87352H9.58335C9.58335 8.77681 9.58335 10.5834 9.57781 11.4867H14.6109C14.4181 12.39 13.7343 13.6546 12.768 14.2914C12.7671 14.2905 12.7662 14.2968 12.7644 14.2959C11.4798 15.1441 9.78452 15.3365 8.52578 15.0836C6.55276 14.6915 4.99133 13.2607 4.35734 11.4433C4.36103 11.4406 4.3638 11.4153 4.36657 11.4135C3.96975 10.2862 3.96975 8.77681 4.36657 7.87352H4.36565C4.8769 6.21328 6.48539 4.69846 8.46118 4.28385C10.0503 3.94692 11.8434 4.31185 13.1621 5.54575C13.3374 5.37412 15.5891 3.17552 15.758 2.99666C11.2528 -1.08349 4.03896 0.351834 1.33967 5.62072H1.33875C1.33875 5.62072 1.33967 5.62072 1.33414 5.63065C-0.0012027 8.21858 0.0541673 11.2681 1.34337 13.7323C1.33967 13.735 1.33691 13.7368 1.33414 13.7395C2.50244 16.0067 4.62865 17.7456 7.19044 18.4077C9.91187 19.1213 13.3753 18.6335 15.6953 16.5352C15.6962 16.5361 15.6971 16.537 15.698 16.5379C17.6637 14.7674 18.8874 11.7513 18.2691 7.87352Z" fill="white" />
</symbol>
</defs>
</svg>
