<svg width="174" height="67" viewBox="0 0 174 67" fill="none" xmlns="http://www.w3.org/2000/svg">
<g clip-path="url(#clip0_28_4550)">
<path d="M38.2493 16.6161V8.64777C38.2493 7.76767 37.5359 7.05411 36.6557 7.05411H35.062V2.27311C35.062 1.39301 34.3485 0.679442 33.4683 0.679442C31.2121 0.679442 27.7568 0.506529 23.7007 2.93647C21.1794 2.18595 19.3962 2.27311 17.5317 2.27311C16.6515 2.27311 15.938 2.98667 15.938 3.86677V7.05411H14.3443C13.4641 7.05411 12.7507 7.76767 12.7507 8.64777V16.6161C12.7507 23.1065 17.6258 28.4793 23.9063 29.266V50.0831C23.9063 50.9632 24.6198 51.6767 25.5 51.6767C26.3802 51.6767 27.0937 50.9632 27.0937 50.0831V44.5053H29.4842C34.3173 44.5053 38.2493 40.5732 38.2493 35.7401V33.3496C38.2493 32.4695 37.5359 31.7559 36.6557 31.7559H32.6715C30.5544 31.7559 28.6102 32.5104 27.0937 33.7646V29.2652C33.3648 28.4886 38.2493 23.1425 38.2493 16.6161ZM35.062 16.6161C35.062 19.4523 33.8077 22.0139 31.8253 23.7703C31.8565 23.5146 31.8747 23.2548 31.8747 22.9908C31.8747 18.9549 30.3659 15.2654 27.8837 12.4545C29.9881 11.0186 32.483 10.2414 35.062 10.2414V16.6161ZM31.8747 3.86677V7.37563C31.5801 7.43559 31.2877 7.50402 30.9976 7.58041C29.9638 6.42311 28.7846 5.43713 27.4973 4.6404C28.8888 4.13162 30.3661 3.86677 31.8747 3.86677ZM19.1253 5.46044C22.2915 5.46044 25.3661 6.61654 27.7573 8.82546C26.9682 9.23275 26.2115 9.70756 25.4953 10.2459C23.6424 8.85286 21.4773 7.85383 19.1253 7.37453V5.46044ZM15.938 16.6161V10.2414C22.968 10.2414 28.6873 15.9607 28.6873 22.9908C28.6873 24.7717 27.2167 26.2228 25.4162 26.1766C19.8175 26.0383 15.938 21.5902 15.938 16.6161ZM32.6715 34.9433H35.062V35.7401C35.062 38.8157 32.5598 41.3179 29.4842 41.3179H27.0937V40.5211C27.0937 37.4455 29.5959 34.9433 32.6715 34.9433Z" fill="white"/>
</g>
<path d="M59.0216 25.5179V28.6768H49.9427V25.5179H59.0216ZM51.4052 11.6423V28.6768H47.2986V11.6423H51.4052ZM57.8516 18.4046V21.4582H49.9427V18.4046H57.8516ZM59.0566 11.6423V14.8128H49.9427V11.6423H59.0566ZM64.5899 11.6423L67.3744 17.3048L70.1589 11.6423H74.8387L70.0887 20.0893L74.9674 28.6768H70.2408L67.3744 22.9089L64.508 28.6768H59.7697L64.6601 20.0893L59.8984 11.6423H64.5899ZM83.4372 22.8972H79.202V19.7266H83.4372C84.0144 19.7266 84.4823 19.6291 84.8411 19.4341C85.1999 19.2392 85.4612 18.9701 85.625 18.6269C85.7966 18.2759 85.8824 17.882 85.8824 17.4452C85.8824 16.9773 85.7966 16.5444 85.625 16.1466C85.4612 15.7488 85.1999 15.429 84.8411 15.1872C84.4823 14.9376 84.0144 14.8128 83.4372 14.8128H80.7463V28.6768H76.6398V11.6423H83.4372C84.8021 11.6423 85.976 11.8919 86.9587 12.391C87.9493 12.8902 88.7098 13.5766 89.2401 14.4502C89.7705 15.3159 90.0357 16.3065 90.0357 17.4218C90.0357 18.5216 89.7705 19.4809 89.2401 20.2999C88.7098 21.1189 87.9493 21.7584 86.9587 22.2186C85.976 22.671 84.8021 22.8972 83.4372 22.8972ZM103.817 25.5179V28.6768H95.2063V25.5179H103.817ZM96.6687 11.6423V28.6768H92.5622V11.6423H96.6687ZM119.529 19.8202V20.5105C119.529 21.813 119.346 22.983 118.979 24.0204C118.62 25.0499 118.109 25.9313 117.446 26.6644C116.783 27.3898 116 27.9475 115.095 28.3375C114.19 28.7197 113.192 28.9107 112.1 28.9107C111 28.9107 109.994 28.7197 109.081 28.3375C108.177 27.9475 107.389 27.3898 106.718 26.6644C106.055 25.9313 105.54 25.0499 105.174 24.0204C104.815 22.983 104.635 21.813 104.635 20.5105V19.8202C104.635 18.5177 104.815 17.3477 105.174 16.3104C105.54 15.273 106.051 14.3917 106.706 13.6663C107.369 12.9331 108.153 12.3754 109.058 11.9933C109.97 11.6033 110.977 11.4083 112.076 11.4083C113.168 11.4083 114.167 11.6033 115.071 11.9933C115.984 12.3754 116.772 12.9331 117.435 13.6663C118.098 14.3917 118.612 15.273 118.979 16.3104C119.346 17.3477 119.529 18.5177 119.529 19.8202ZM115.364 20.5105V19.7968C115.364 18.9545 115.29 18.2135 115.142 17.5739C115.001 16.9266 114.791 16.3845 114.51 15.9477C114.229 15.5109 113.882 15.1833 113.469 14.9649C113.063 14.7387 112.599 14.6256 112.076 14.6256C111.53 14.6256 111.055 14.7387 110.649 14.9649C110.243 15.1833 109.904 15.5109 109.631 15.9477C109.358 16.3845 109.151 16.9266 109.011 17.5739C108.878 18.2135 108.812 18.9545 108.812 19.7968V20.5105C108.812 21.3451 108.878 22.086 109.011 22.7334C109.151 23.373 109.358 23.9151 109.631 24.3596C109.912 24.8042 110.255 25.1396 110.661 25.3658C111.074 25.592 111.554 25.7051 112.1 25.7051C112.622 25.7051 113.086 25.592 113.492 25.3658C113.898 25.1396 114.237 24.8042 114.51 24.3596C114.791 23.9151 115.001 23.373 115.142 22.7334C115.29 22.086 115.364 21.3451 115.364 20.5105ZM121.974 11.6423H128.677C129.988 11.6423 131.126 11.8373 132.094 12.2273C133.061 12.6172 133.806 13.1944 134.328 13.9588C134.859 14.7231 135.124 15.6669 135.124 16.7901C135.124 17.765 134.972 18.5801 134.667 19.2353C134.363 19.8904 133.938 20.4325 133.392 20.8615C132.854 21.2827 132.226 21.6298 131.509 21.9027L130.163 22.6632H124.536L124.512 19.4926H128.677C129.2 19.4926 129.633 19.399 129.976 19.2119C130.319 19.0247 130.577 18.7595 130.748 18.4163C130.928 18.0653 131.017 17.648 131.017 17.1644C131.017 16.6731 130.928 16.2519 130.748 15.9009C130.569 15.5499 130.304 15.2808 129.953 15.0936C129.609 14.9064 129.184 14.8128 128.677 14.8128H126.08V28.6768H121.974V11.6423ZM131.298 28.6768L127.531 21.1423L131.883 21.1189L135.697 28.5013V28.6768H131.298ZM149.642 25.5179V28.6768H140.563V25.5179H149.642ZM142.026 11.6423V28.6768H137.919V11.6423H142.026ZM148.472 18.4046V21.4582H140.563V18.4046H148.472ZM149.677 11.6423V14.8128H140.563V11.6423H149.677Z" fill="#DD2242"/>
<path d="M51.6626 33.6423V50.6768H47.5677V33.6423H51.6626ZM69.0942 33.6423V50.6768H64.9994L58.9741 40.077V50.6768H54.8676V33.6423H58.9741L64.9994 44.242V33.6423H69.0942ZM77.5406 50.6768H73.7617L73.7851 47.5179H77.5406C78.3206 47.5179 78.9797 47.3307 79.5179 46.9563C80.0638 46.5819 80.4772 46.0243 80.758 45.2833C81.0466 44.5345 81.1909 43.6142 81.1909 42.5222V41.7851C81.1909 40.9662 81.109 40.2486 80.9452 39.6324C80.7892 39.0084 80.5552 38.4898 80.2432 38.0764C79.9312 37.6552 79.5413 37.3393 79.0733 37.1287C78.6131 36.9181 78.0827 36.8128 77.4821 36.8128H73.6915V33.6423H77.4821C78.6365 33.6423 79.6933 33.8412 80.6527 34.239C81.6199 34.6289 82.4544 35.1905 83.1564 35.9237C83.8662 36.649 84.4122 37.5109 84.7943 38.5093C85.1843 39.4998 85.3793 40.5996 85.3793 41.8085V42.5222C85.3793 43.7234 85.1843 44.8231 84.7943 45.8215C84.4122 46.8198 83.8701 47.6817 83.1681 48.4071C82.4661 49.1324 81.6355 49.694 80.6761 50.0918C79.7245 50.4818 78.6794 50.6768 77.5406 50.6768ZM76.1133 33.6423V50.6768H72.0068V33.6423H76.1133ZM102.249 41.8202V42.5105C102.249 43.813 102.066 44.983 101.7 46.0204C101.341 47.0499 100.83 47.9313 100.167 48.6644C99.5039 49.3898 98.72 49.9475 97.8153 50.3375C96.9105 50.7197 95.9122 50.9107 94.8202 50.9107C93.7204 50.9107 92.7143 50.7197 91.8017 50.3375C90.897 49.9475 90.1092 49.3898 89.4384 48.6644C88.7755 47.9313 88.2607 47.0499 87.8941 46.0204C87.5353 44.983 87.3559 43.813 87.3559 42.5105V41.8202C87.3559 40.5177 87.5353 39.3477 87.8941 38.3104C88.2607 37.273 88.7716 36.3917 89.4267 35.6663C90.0897 34.9331 90.8736 34.3754 91.7783 33.9933C92.6909 33.6033 93.697 33.4083 94.7968 33.4083C95.8888 33.4083 96.8871 33.6033 97.7919 33.9933C98.7044 34.3754 99.4922 34.9331 100.155 35.6663C100.818 36.3917 101.333 37.273 101.7 38.3104C102.066 39.3477 102.249 40.5177 102.249 41.8202ZM98.0844 42.5105V41.7968C98.0844 40.9545 98.0103 40.2135 97.8621 39.5739C97.7217 38.9266 97.5111 38.3845 97.2303 37.9477C96.9495 37.5109 96.6024 37.1833 96.189 36.9649C95.7835 36.7387 95.3194 36.6256 94.7968 36.6256C94.2508 36.6256 93.775 36.7387 93.3695 36.9649C92.9639 37.1833 92.6246 37.5109 92.3516 37.9477C92.0786 38.3845 91.8719 38.9266 91.7315 39.5739C91.5989 40.2135 91.5326 40.9545 91.5326 41.7968V42.5105C91.5326 43.3451 91.5989 44.086 91.7315 44.7334C91.8719 45.373 92.0786 45.9151 92.3516 46.3596C92.6324 46.8042 92.9756 47.1396 93.3812 47.3658C93.7945 47.592 94.2742 47.7051 94.8202 47.7051C95.3428 47.7051 95.8069 47.592 96.2124 47.3658C96.618 47.1396 96.9573 46.8042 97.2303 46.3596C97.5111 45.9151 97.7217 45.373 97.8621 44.7334C98.0103 44.086 98.0844 43.3451 98.0844 42.5105ZM118.921 33.6423V50.6768H114.826L108.8 40.077V50.6768H104.694V33.6423H108.8L114.826 44.242V33.6423H118.921ZM133.556 47.5179V50.6768H124.477V47.5179H133.556ZM125.94 33.6423V50.6768H121.833V33.6423H125.94ZM132.386 40.4046V43.4582H124.477V40.4046H132.386ZM133.591 33.6423V36.8128H124.477V33.6423H133.591ZM144.331 46.149C144.331 45.8839 144.292 45.646 144.214 45.4354C144.136 45.217 143.991 45.0142 143.781 44.827C143.57 44.6398 143.266 44.4526 142.868 44.2654C142.478 44.0704 141.963 43.8676 141.324 43.6571C140.575 43.4075 139.854 43.1267 139.159 42.8147C138.465 42.4949 137.845 42.1244 137.299 41.7032C136.753 41.2743 136.32 40.7751 136.001 40.2057C135.681 39.6285 135.521 38.9578 135.521 38.1934C135.521 37.4602 135.685 36.8011 136.012 36.2162C136.34 35.6234 136.796 35.1203 137.381 34.7069C137.974 34.2857 138.668 33.966 139.464 33.7476C140.259 33.5214 141.129 33.4083 142.073 33.4083C143.321 33.4083 144.42 33.6267 145.372 34.0635C146.331 34.4924 147.08 35.1047 147.618 35.9003C148.164 36.688 148.437 37.6201 148.437 38.6965H144.354C144.354 38.2675 144.264 37.8892 144.085 37.5616C143.913 37.234 143.652 36.9766 143.301 36.7894C142.95 36.6023 142.509 36.5087 141.979 36.5087C141.464 36.5087 141.031 36.5867 140.68 36.7426C140.329 36.8986 140.064 37.1092 139.885 37.3744C139.705 37.6318 139.616 37.9165 139.616 38.2285C139.616 38.4859 139.686 38.7199 139.826 38.9305C139.975 39.1332 140.181 39.3243 140.446 39.5037C140.719 39.6831 141.047 39.8547 141.429 40.0185C141.819 40.1823 142.256 40.3422 142.74 40.4982C143.644 40.7868 144.448 41.1105 145.15 41.4692C145.859 41.8202 146.456 42.2219 146.94 42.6743C147.431 43.1189 147.802 43.6259 148.051 44.1952C148.308 44.7646 148.437 45.4081 148.437 46.1256C148.437 46.89 148.289 47.5686 147.993 48.1614C147.696 48.7541 147.271 49.2572 146.717 49.6706C146.164 50.0762 145.501 50.3843 144.728 50.5949C143.956 50.8055 143.094 50.9107 142.143 50.9107C141.269 50.9107 140.407 50.8016 139.557 50.5832C138.715 50.357 137.951 50.0138 137.264 49.5536C136.578 49.0856 136.028 48.489 135.615 47.7636C135.209 47.0304 135.006 46.1607 135.006 45.1546H139.124C139.124 45.6538 139.191 46.075 139.323 46.4181C139.456 46.7613 139.651 47.0382 139.908 47.2488C140.166 47.4516 140.482 47.5998 140.856 47.6934C141.23 47.7792 141.659 47.8221 142.143 47.8221C142.665 47.8221 143.087 47.748 143.406 47.5998C143.726 47.4438 143.96 47.241 144.108 46.9914C144.257 46.734 144.331 46.4532 144.331 46.149ZM155.234 33.6423V50.6768H151.139V33.6423H155.234ZM165.868 37.2223L161.715 50.6768H157.304L163.563 33.6423H166.36L165.868 37.2223ZM169.308 50.6768L165.143 37.2223L164.605 33.6423H167.436L173.73 50.6768H169.308ZM169.144 44.3239V47.4945H160.405V44.3239H169.144Z" fill="white"/>
<defs>
<clipPath id="clip0_28_4550">
<rect width="51" height="51" fill="white" transform="translate(0 0.676758)"/>
</clipPath>
</defs>
</svg>
