<svg width="375" height="488" viewBox="0 0 375 488" fill="none" xmlns="http://www.w3.org/2000/svg">
<mask id="mask0_28_4458" style="mask-type:alpha" maskUnits="userSpaceOnUse" x="-757" y="0" width="1145" height="488">
<rect x="-757" width="1145" height="488" fill="white"/>
</mask>
<g mask="url(#mask0_28_4458)">
<path fill-rule="evenodd" clip-rule="evenodd" d="M228.131 571.92C228.084 558.854 209.318 544.162 201.302 536.587C185.452 521.605 168.967 507.77 152.634 493.714C136.302 479.658 119.926 465.64 104.352 450.208C94.2404 440.191 82.3588 428.909 75.5008 414.605C60.8913 384.123 106.954 388.649 118.886 387.982C149.239 386.279 184.055 387.056 212.507 371.183C229.492 361.707 236.265 345.814 232.617 322.651C231.441 315.118 227.96 306.45 230.909 299.112C234.057 291.274 241.3 286.751 247.311 283.718C269.237 272.668 294.447 271.388 317.646 270.001C342.661 268.477 367.912 268.923 392.751 268.805C403.284 268.755 414.283 263.851 424.313 259.866C437.462 254.642 450.454 248.774 463.494 243.101C492.181 230.649 521.741 217.534 552.092 214.371C571.099 212.39 591.873 215.068 606.638 232.302C614.052 240.955 617.932 253.819 622.218 265.246C627.406 279.05 632.389 292.988 637.912 306.576C655.705 350.337 681.109 393.1 722.342 395.249C728.58 395.572 734.706 394.517 740.914 394.319C744.868 394.197 748.386 395.435 749.856 400.796C753.551 414.243 741.937 435.47 737.175 446.139C726.748 469.492 714.99 491.797 703.976 514.682C696.688 529.816 684.075 550.498 683.943 568.887C683.825 585.271 700.639 597.113 709.793 605.183C718.371 612.739 733.912 623.313 734.853 638.683C735.308 646.136 731.516 652.313 727.557 657.106C720.616 665.488 712.621 671.402 706.377 680.966C696.139 696.657 687.585 718.246 688.975 739.389C689.939 754.039 696.389 763.633 704.593 772.805C708.041 776.661 710.839 779.389 711.022 785.649C711.316 795.59 708.311 806.11 705.836 815.327C696.982 848.313 684.407 880.209 670.418 909.99C663.428 924.873 655.876 939.71 646.607 952.406C640.537 960.743 632.351 970.665 623.091 970.653C612.371 970.653 601.027 965.639 590.606 961.89C571.143 954.883 551.916 946.782 532.765 938.472C488.476 919.245 444.603 898.461 401.147 876.12C370.537 860.357 339.278 844.571 310.5 823.615C304.887 819.499 299.59 814.701 294.679 809.284C289.432 803.596 282.921 801.05 276.319 799.153C235.342 787.375 190.449 796.417 149.301 802.087C138.857 803.523 128.413 804.967 117.939 805.973C108.935 806.838 98.1559 809.319 89.4049 805.592C72.1615 798.257 87.2355 771.224 93.6084 760.208C116.046 721.423 144.995 688.609 171.827 655.109C184.584 639.156 197.439 623.244 209.503 606.387C215.785 597.624 228.172 583.373 228.131 571.92Z" stroke="#5BE7C3" stroke-width="2"/>
<path fill-rule="evenodd" clip-rule="evenodd" d="M235.863 569.713C228.986 555.888 216.919 545.669 206.903 536.052C192.49 522.208 177.623 509.133 162.98 495.681C149.134 482.961 135.259 470.095 122.437 455.649C114.618 446.84 104.808 436.305 101.104 423.276C93.071 395.036 136.288 399.32 146.957 398.581C173.481 396.753 203.553 396.334 228.092 381.466C243.414 372.18 249.709 356.782 246.441 335.405C245.311 328.008 243.276 321.694 245.853 314.336C248.832 305.82 255.686 300.51 261.969 296.763C281.651 285.021 304.916 282.526 326.251 280.451C348.292 278.306 371.257 276.794 392.589 278.363C401.12 278.988 410.939 275.442 419.381 272.723C432.371 268.533 445.229 263.7 458.154 259.206C484.422 250.066 511.373 241.26 538.7 240.258C558.429 239.535 578.999 243.458 595.413 258.62C612.047 273.995 619.428 297.829 628.652 320.486C644.584 359.658 666.101 407.284 702.959 415.56C708.548 416.817 713.919 416.135 719.503 416.444C722.374 416.6 725.642 417.095 727.098 420.763C730.878 430.284 720.52 447.693 717.035 454.987C707.404 475.142 696.576 494.31 686.484 514.077C678.468 529.772 668.308 547.212 665.207 565.817C661.445 588.394 686.028 604.458 694.673 620.355C709.66 647.922 681.265 663.629 667.266 676.772C651.191 691.862 637.921 719.39 652.332 742.737C657.845 751.664 664.628 756.985 667.09 768.635C670.94 786.855 668.028 807.677 664.904 825.688C660.198 852.763 652.75 879.545 642.625 904.015C635.371 921.535 623.337 949.006 605.714 946.946C593.851 945.571 581.791 940.547 570.239 936.106C552.943 929.46 535.864 921.885 518.876 914.017C479.663 895.903 440.881 875.931 402.861 853.963C376.92 838.968 304.557 777.692 299.113 775.506C282.878 768.993 264.42 770.14 247.682 771.149C225.418 772.489 203.265 775.963 181.13 779.181C170.593 780.705 160.003 782.567 149.411 783.317C141.871 783.85 131.97 784.308 125.366 778.629C112.476 767.55 126.837 742.2 132.776 731.475C150.97 698.595 173.984 670.122 195.564 641.009C206.153 626.716 216.905 612.445 226.518 597.005C230.395 590.77 240.114 578.252 235.863 569.713Z" stroke="#5ACEF2" stroke-width="2"/>
<path fill-rule="evenodd" clip-rule="evenodd" d="M245.378 562.627C226.595 534.961 200.672 514.385 178.299 491.279C167.07 479.679 155.77 467.762 146.085 453.945C141.047 446.76 134.756 437.674 133.785 427.658C131.191 400.865 170.143 404.488 181.802 403.471C204.343 401.497 229.807 400 250.257 386.327C262.751 377.969 268.904 364.25 266.568 346.219C265.533 338.219 263.921 331.423 266.568 323.567C269.251 315.609 274.839 309.993 280.498 305.784C296.759 293.676 316.968 289.806 335.276 286.922C356.754 283.563 378.393 282.251 400.019 282.998C418.96 283.642 437.81 276.4 456.303 271.626C480.803 265.306 505.747 259.786 530.817 260.62C550.617 261.283 570.572 266.491 587.498 280.331C604.698 294.427 615.039 315.525 624.362 338.291C638.456 372.708 656.021 418.827 686.941 431.898C691.438 433.803 695.629 434.013 700.267 434.344C702.52 434.504 705.429 434.554 706.546 437.598C709.235 444.927 699.296 459.137 696.523 464.09C687.67 479.9 678.073 494.998 669 510.598C660.529 525.163 651.303 540.34 646.041 557.407C637.668 584.589 664.438 600.483 663.688 626.385C663.221 642.466 651.335 653.997 641.924 661.975C630.336 671.785 613.651 678.234 607.851 696.136C603.53 709.47 610.31 717.23 615.53 727.349C624.377 744.492 624.98 767.731 624.059 787.575C622.818 814.392 617.968 841.604 609.713 866.252C605.972 877.426 601.389 889.049 594.642 897.728C588.322 905.861 582.34 907.945 573.893 906.28C548.034 901.175 521.926 886.946 497.129 874.237C465.974 858.267 435.248 840.636 405.44 820.799C385.113 807.271 364.328 792.958 346.488 774.268C341.838 769.396 337.076 764.1 333.676 757.673C331.106 752.843 330.014 748.854 325.682 746.096C312.841 737.924 294.98 740.061 281.221 740.911C259.221 742.263 237.328 745.863 215.463 749.105C202.705 751.01 178.67 757.003 168.482 742.629C159.688 730.217 170.299 709.055 175.72 698.121C189.431 670.47 207.069 646.203 223.434 621.215C230.934 609.764 238.728 598.224 244.922 585.492C246.504 582.246 249.039 577.945 249.475 574.002C249.963 569.484 247.683 566.036 245.378 562.627Z" stroke="#5BE7C3" stroke-width="2"/>
<path fill-rule="evenodd" clip-rule="evenodd" d="M246.992 569.063C229.637 544.601 208.728 524.505 190.096 501.614C181.742 491.35 173.306 480.584 166.94 468.063C163.516 461.33 159.881 452.855 160.825 444.486C163.534 420.467 195.571 422.636 208.514 421.229C227.746 419.163 249.84 417.081 266.845 404.13C277.985 395.647 282.162 383.118 280.082 366.961C277.849 349.629 282.841 337.047 294.201 327.378C308.445 315.266 326.423 310.328 342.961 306.821C362.885 302.615 383.062 300.751 403.245 301.251C422.874 301.739 441.892 297.476 461.391 294.704C487.245 291.033 513.928 289.222 539.49 296.748C561.746 303.302 581.849 317.744 596.918 340.078C612.658 363.388 620.451 392.757 633.232 418.545C641.203 434.63 652.32 455.909 667.216 462.161C672.184 464.247 681.238 461.433 677.27 471.693C675.002 477.56 670.757 482.707 667.404 487.504C661.986 495.255 656.388 502.792 650.878 510.436C639.136 526.731 626.56 543.373 617.759 562.669C606.669 586.963 623.154 605.66 621.145 630.293C620.065 643.549 612.953 654.129 605.428 662.441C600.56 667.824 595.233 672.487 589.794 676.837C584.114 681.382 577.392 684.843 572.438 690.719C565.379 699.08 568.444 708.977 569.768 719.786C572.097 738.781 572.609 758.076 571.291 777.234C569.679 800.716 565.899 824.869 557.937 846.208C554.839 854.515 550.915 863.322 545.088 868.893C539.261 874.463 533.233 874.082 526.556 872.404C506.75 867.448 486.986 855.915 468.198 844.984C444.683 831.3 421.63 816.008 399.615 798.611C384.419 786.602 369.173 773.627 356.46 757.344C352.762 752.605 349.244 747.53 346.4 741.865C344.446 737.98 343.399 732.966 340.569 730.046C331.715 720.93 313.939 723.652 303.556 724.182C282.832 725.238 262.435 730.259 241.739 731.479C230.443 732.146 212.752 733.824 204.457 721.36C196.656 709.644 203.722 691.191 208.384 679.902C217.547 657.705 229.858 637.929 240.891 617.296C245.427 608.805 250.399 599.922 253.337 590.226C255.949 581.587 251.44 575.334 246.992 569.063Z" stroke="#5ACEF2" stroke-width="2"/>
<path fill-rule="evenodd" clip-rule="evenodd" d="M251.261 569.465C237.447 547.94 220.793 528.832 206.879 506.956C198.735 494.145 184.709 472.608 191.007 454.547C197.917 434.7 222.004 434.16 235.927 432.561C252.498 430.657 271.959 428.057 286.14 415.665C290.626 411.747 294.447 406.562 296.066 399.732C297.8 392.422 295.904 386.026 295.657 378.709C295.14 363.359 302.212 351.035 311.57 342.572C324.797 330.606 341.336 324.949 356.957 321.005C374.656 316.556 392.648 314.363 410.677 314.456C427.907 314.532 444.954 314.038 462.201 313.466C484.757 312.705 507.629 313.935 529.509 321.697C551.062 329.35 570.658 343.691 586.05 364.786C601.066 385.372 611.198 410.533 620.071 436.162C625.106 450.709 633.612 472.448 645.622 479.796C650.962 483.066 656.203 482.842 650.524 491.347C643.373 502.056 633.736 510.649 625.453 519.809C613.505 533.027 601.258 546.504 591.229 562.22C584.824 572.256 581.971 581.994 582.411 594.988C582.752 604.887 584.298 614.682 583.517 624.619C581.685 647.941 567.51 663.935 554.977 678.828C546.915 688.407 539.552 695.713 535.402 709.339C530.493 725.443 528.433 742.963 525.153 759.684C521.549 778.046 517.388 797.146 509.522 813.319C502.521 827.717 494.006 834.174 481.262 830.295C461.384 824.249 441.791 809.356 424.144 795.578C406.183 781.56 388.53 765.798 373.646 746.531C365.61 736.126 360.126 723.909 352.989 712.731C344.013 698.698 323.706 704.013 311.638 705.2C291.604 707.173 228.567 721.929 234.384 674.134C236.812 654.185 246.373 635.774 253.365 618.17C256.263 610.864 260.458 602.096 261.113 593.724C261.827 584.606 255.414 575.945 251.261 569.465Z" stroke="#FF8062" stroke-width="2"/>
<path fill-rule="evenodd" clip-rule="evenodd" d="M258.555 571.289C247.998 551.782 235.364 533.354 226.306 512.286C220.43 498.642 214.66 480.411 222.24 465.975C230.795 449.683 249.661 445.885 263.523 443.809C277.805 441.672 294.855 439.874 306.528 427.522C310.241 423.587 313.303 418.281 313.873 411.927C314.422 405.832 312.871 399.738 313.385 393.533C314.537 379.599 321.056 368.118 329.462 359.792C354.327 335.158 391.336 329.681 421.336 329.037C436.353 328.717 451.807 330.397 466.921 331.6C486.532 333.162 506.174 336.514 524.877 344.593C564.644 361.765 591.299 399.848 609.915 447.238C615.773 462.154 620.257 478.293 629.438 490.28C634.171 496.47 633.137 500.916 628.298 506.561C620.733 515.383 611.504 522.125 603.107 529.488C591.164 539.959 578.965 550.586 568.402 563.13C561.122 571.776 555.954 580.107 554.385 593.073C553.265 602.318 553.527 611.738 552.854 621.04C551.573 638.71 547.186 656.247 539.421 670.905C533.251 682.523 525.906 693.081 518.314 703.149C508.445 716.256 500.098 729.573 492.603 745.129C482.666 765.721 468.704 803.706 445.299 793.653C419.485 782.561 395.29 754.378 378.728 727.07C373.166 717.902 368.601 706.657 361.1 699.896C349.87 689.79 338.476 690.145 325.12 690.187C305.123 690.244 261.61 695.87 261.14 657.047C260.955 641.666 266.091 627.123 268.55 612.328C271.323 595.759 265.765 584.583 258.555 571.289Z" stroke="#F1B170" stroke-width="2"/>
<path fill-rule="evenodd" clip-rule="evenodd" d="M266.417 573.03C255.976 547.607 232.561 505.831 250.369 477.561C259.777 462.621 276.415 457.006 290.373 453.66C301.606 450.954 315.152 449.938 323.639 438.465C329.877 430.03 327.108 417.754 329.498 407.195C332.464 394.105 339.272 383.393 347.639 375.343C371.018 352.843 403.525 345.938 431.65 344.468C460.859 342.946 493.043 350.068 520.529 363.767C554.8 380.854 580.475 413.209 598.431 454.182C601.744 461.745 604.755 469.506 607.935 477.161C610.072 482.296 613.241 487.264 614.926 492.665C617.73 501.671 614.426 509.033 609.129 514.902C601.509 523.352 592.149 529.367 583.462 535.708C571.583 544.387 559.439 552.91 548.389 563.092C540.963 569.943 533.19 577.324 530.533 589.212C528.719 597.319 528.343 605.907 528.407 614.304C528.548 632.308 527.819 646.868 521.334 663.357C510.663 690.429 494.254 714.771 476.918 735.025C463.313 750.921 441.786 775.613 421.963 764.986C404.178 755.47 393.774 732.692 382.057 714.276C376.36 705.323 369.96 697.147 362.44 690.779C352.96 682.751 344.035 679.382 332.802 678.069C313.897 675.858 285.39 675.283 279.546 645.897C277.388 635.053 278.62 623.82 277.488 612.834C276.01 598.309 271.685 585.854 266.417 573.03Z" stroke="#5BE7C3" stroke-width="2"/>
<path fill-rule="evenodd" clip-rule="evenodd" d="M277.275 573.972C269.839 546.154 260.071 511.096 278.03 486.372C286.729 474.395 298.965 467.7 310.807 462.696C319.288 459.11 332.755 458.055 337.955 447.031C341.774 438.918 342.303 427.726 345.758 419.034C350.505 407.083 357.697 397.24 366.134 389.535C388.115 369.457 416.744 361.698 442.852 359.476C499.581 354.656 557.303 393.048 587.659 456.214C596.71 475.043 608.394 495.083 593.767 514.32C577.797 535.305 553.739 545.137 534.679 560.048C527.396 565.741 518.115 572.585 514.052 582.893C511.608 589.089 511.441 596.863 511.329 603.684C511.035 621.057 509.922 636.681 504.531 652.891C496.205 677.943 482.929 701.055 467.885 719.986C454.765 736.494 436.054 755.894 416.999 743.993C402.39 734.848 393.124 715.436 381.772 701.127C369.14 685.191 353.517 674.452 336.36 669.205C319.67 664.114 301.365 660.68 292.569 639.051C289.552 631.631 286.4 622.025 285.269 613.813C283.443 600.273 280.769 586.949 277.275 573.972V573.972Z" stroke="#FF8062" stroke-width="2"/>
<path fill-rule="evenodd" clip-rule="evenodd" d="M289.382 574.165C285.942 546.075 285.559 516.785 301.542 494.646C309.001 484.317 318.43 476.979 327.964 470.331C334.979 465.439 342.224 461.313 347.463 453.293C352.317 445.868 356.007 437.246 360.693 429.626C366.875 419.528 374.272 410.787 382.6 403.738C403.474 386.102 428.868 377.854 453.162 374.993C464.922 373.602 477.679 372.878 489.36 376.669C500.641 380.326 511.796 386.11 522.169 392.853C544.219 407.175 563.33 428.148 577.183 454.665C586.683 472.853 591.819 490.539 579.518 508.99C565.649 529.788 543.905 541.263 525.982 554.762C513.689 564.02 499.912 573.095 497.616 592.769C495.787 608.424 494.302 623.282 489.572 638.08C482.531 659.907 472.179 679.679 459.13 696.223C447.196 711.295 432.099 724.084 415.029 716.034C401.505 709.645 391.011 695.331 379.195 685.098C366.027 673.668 351.558 667.367 336.323 662.299C322.631 657.728 309.739 650.702 300.889 635.786C299.078 632.739 297.176 629.42 295.779 626.01C293.997 621.659 294.136 617.347 293.786 612.47C292.874 599.6 290.937 586.879 289.382 574.165Z" stroke="#F1B170" stroke-width="2"/>
<path fill-rule="evenodd" clip-rule="evenodd" d="M302.73 571.871C303.024 545.19 307.976 519.974 321.538 499.18C327.336 490.285 334.26 482.958 340.64 474.807C345.776 468.236 350.631 462.13 356.538 456.716C370.55 443.894 381.937 427.302 396.828 415.884C416.705 400.62 439.474 392.183 462.067 388.81C473.099 387.161 484.496 386.585 495.657 388.447C505.243 390.046 514.423 395.659 522.94 401.402C539.632 412.652 555.839 428.641 566.677 448.87C590.571 493.468 543.461 525.892 519.281 544.881C508.161 553.615 491.169 563.732 486.614 581.034C483.358 593.394 481.375 605.964 477.181 617.942C465.917 650.111 443.051 687.947 412.579 682.91C399.54 680.757 387.656 672.015 375.484 666.146C362.95 660.101 350.014 656.732 336.987 653.034C324.812 649.581 315.108 644.665 307.244 631.489C303.485 625.196 303.818 617.663 303.482 609.944C302.936 597.263 302.598 584.51 302.73 571.871Z" stroke="#5BE7C3" stroke-width="2"/>
<path fill-rule="evenodd" clip-rule="evenodd" d="M314.885 568.452C319.781 528.179 337.962 484.211 364.696 460.823C396.143 433.31 430.211 410.142 467.783 403.482C485.202 400.394 504.284 398.874 520.721 408.973C533.23 416.654 547.761 428.135 554.645 444.281C571.488 483.774 534.025 515.212 512.681 533.483C501.189 543.319 486.562 552.904 477.9 567.268C472.876 575.596 470.31 586.612 466.253 595.759C453.959 623.477 433.721 645.834 408.511 649.833C396.855 651.679 385.113 649.395 373.546 647.578C361.704 645.72 349.715 644.711 337.948 642.118C328.554 640.046 317.483 636.539 314.023 623.512C309.66 607.095 312.888 584.899 314.885 568.452Z" stroke="#5ACEF2" stroke-width="2"/>
<path fill-rule="evenodd" clip-rule="evenodd" d="M326.805 561.984C333.944 524.12 349.063 487.186 374.479 464.582C387.957 452.596 403.603 444.322 418.625 436.147C435.652 426.882 453.442 419.69 471.613 416.123C494.236 411.679 530.877 407.674 542.697 441.078C554.428 474.235 524.783 503.581 507.252 520.305C496.012 531.018 483.983 540.851 473.244 552.562C467.421 558.912 462.935 566.248 458.008 573.695C444.388 594.329 424.972 610.663 405.182 619.383C386.001 627.837 362.273 631.579 342.027 628.786C333.291 627.585 327.046 623.534 324.404 612.016C320.743 596.006 323.854 577.625 326.805 561.984Z" stroke="#F1B170" stroke-width="2"/>
<path fill-rule="evenodd" clip-rule="evenodd" d="M338.649 551.785C345.741 518.448 361.04 487.998 383.354 467.99C408.368 445.56 440.578 433.096 470.182 426.758C485.918 423.392 520.018 414.264 528.039 440.387C536.06 466.51 512.873 492.253 499.527 506.424C483.33 523.598 465.867 540.179 448.425 555.588C433.27 568.986 417.1 582.683 400.685 593.029C391.428 598.898 381.784 603.69 371.868 607.348C364.526 610.035 355.189 614.043 347.492 612.043C328.076 606.991 335.256 567.726 338.649 551.785Z" stroke="#FF8062" stroke-width="2"/>
<path fill-rule="evenodd" clip-rule="evenodd" d="M353.268 541.802C368.83 478.756 418.136 447.749 465.609 436.942C476.641 434.433 507.565 425.388 513.731 444.647C519.707 463.319 500.703 485.464 491.806 495.956C464.238 528.466 430.177 552.571 397.902 576.452C387.828 583.906 369.658 600.081 357.162 592.62C343.593 584.503 350.044 554.875 353.268 541.802Z" stroke="#5ACEF2" stroke-width="2"/>
<path fill-rule="evenodd" clip-rule="evenodd" d="M369.209 529.666C382.743 483.238 422.106 456.61 458.297 447.832C467.161 445.684 489.674 438.996 496.388 451.952C502.601 463.937 487.774 481.304 482.227 488.204C469.878 503.571 455.242 516.23 440.783 528.398C427.415 539.656 413.902 551.195 399.835 560.716C392.426 565.728 378.53 576.422 370.11 568.683C361.046 560.358 366.204 539.976 369.209 529.666Z" stroke="#5ACEF2" stroke-width="2"/>
<path fill-rule="evenodd" clip-rule="evenodd" d="M-65.9387 607.642C-66.3115 577.898 -78.508 546.985 -72.4846 516.678C-67.5385 491.786 -42.6378 489.708 -27.6997 478.431C-15.829 469.471 -9.09237 453.6 -2.67272 438.372C3.09528 424.701 8.27621 410.618 14.3524 397.172C18.2858 388.478 25.0401 371.408 33.5703 371.1C41.7365 370.803 49.2246 384.105 53.9682 391.969C60.153 402.218 65.6363 413.146 71.642 423.559C81.7632 441.124 93.9068 454.125 107.812 466.43C123.635 480.431 139.72 493.954 156.066 506.999C168.101 516.632 180.218 526.193 191.787 536.778C199.043 543.419 215.058 555.88 215.132 568.124C215.167 573.966 210.896 580.437 208.016 585.107C203.144 593.012 197.59 600.24 192.019 607.311C181.642 620.484 170.825 633.059 160.126 645.787C146.239 662.305 132.974 678.553 120.765 697.305C108.143 716.716 96.0849 736.767 83.7798 756.543C75.4463 769.94 67.1216 784.985 55.1012 793.206C40.0457 803.483 27.6878 792.647 12.462 792.521C-0.635572 792.411 0.330169 753.072 -1.33419 742.133C-3.00441 731.061 -6.68537 720.754 -8.11196 709.656C-9.89079 695.802 -9.91428 681.628 -10.3517 667.626C-10.883 650.499 -11.0943 634.193 -25.2164 627.662C-33.2534 623.951 -41.9479 623.171 -50.2668 620.948C-55.6561 619.506 -65.8213 617.04 -65.9387 607.642Z" stroke="#FF8062" stroke-width="2"/>
<path fill-rule="evenodd" clip-rule="evenodd" d="M-59.4996 602.353C-60.8725 577.42 -68.9834 545.507 -61.3134 519.77C-54.7606 497.776 -34.2671 494.925 -20.4676 483.371C-9.07583 473.842 -4.00465 458.247 1.68978 442.928C6.25826 430.639 10.6886 418.231 15.8744 406.334C19.6962 397.567 25.5317 382.766 33.478 380.952C40.6218 379.32 48.283 392.387 52.2929 399.035C58.1431 408.74 63.1467 419.279 68.3149 429.598C77.396 447.723 86.6946 464.022 99.9855 477.337C113.335 490.709 127.94 500.707 142.701 511.113C154.249 519.255 165.738 527.634 176.709 537.034C184.882 544.032 196.632 552.99 200.371 565.47C203.332 575.342 188.318 591.726 183.891 597.508C174.777 609.397 165.12 620.558 155.445 631.65C143.651 645.167 131.48 656.988 121.064 672.406C102.434 699.973 86.8622 734.303 62.8909 754.791C48.4329 767.149 32.3433 770.309 16.2625 768.46C9.89482 767.728 8.36611 756.076 7.56354 749.279C6.22887 737.989 6.06129 726.504 5.03529 715.167C4.07397 704.555 1.93967 694.473 0.219872 684.067C-1.5205 673.523 -2.00851 662.721 -3.29027 652.105C-4.08402 645.514 -4.86895 637.845 -8.34088 632.546C-11.9333 627.061 -17.86 624.763 -23.04 623.017C-32.7678 619.769 -58.5294 619.948 -59.4996 602.353Z" stroke="#5BE7C3" stroke-width="2"/>
<path fill-rule="evenodd" clip-rule="evenodd" d="M-51.2122 591.915C-53.5211 569.028 -56.7536 540.523 -47.3473 519.437C-39.6588 502.196 -23.2612 498.476 -11.549 487.242C-1.80745 477.9 1.8721 463.042 6.70757 449.235C10.6754 437.91 14.6637 426.535 19.4727 415.758C23.1199 407.585 27.8201 396.503 35.0615 393.652C41.253 391.215 48.2473 402.129 51.6798 407.562C57.5241 416.82 62.289 427.194 67.0215 437.43C74.763 454.18 81.8868 472.072 92.9048 485.697C103.611 498.918 116.329 506.722 129.286 515.497C139.209 522.219 149.072 529.201 158.422 537.218C165.602 543.37 174.499 550.66 178.24 560.897C181.476 569.725 173.17 580.175 169.019 586.402C162.166 596.681 154.56 606.11 147.06 615.578C138.965 625.792 130 635.214 122.168 645.679C105.696 667.701 92.5372 692.084 72.2364 708.956C59.0889 719.885 41.3971 729.813 25.8553 728.028C14.6784 726.741 15.4138 694.68 14.3402 684.436C12.5754 667.686 9.16648 650.087 3.75158 634.658C-0.898594 621.437 -11.949 617.36 -22.1141 614.394C-28.4819 612.533 -35.1557 611.528 -41.3148 608.65C-48.4444 605.315 -50.2445 601.508 -51.2122 591.915Z" stroke="#5ACEF2" stroke-width="2"/>
<path fill-rule="evenodd" clip-rule="evenodd" d="M-43.482 581.188C-44.8567 561.838 -44.5476 538.957 -35.6427 522.219C-27.8388 507.558 -13.9441 503.698 -4.06185 492.149C3.65085 483.139 6.68 468.447 10.8278 456.531C15.897 441.962 23.0003 415.053 35.7881 409.57C47.6839 404.473 60.1243 437.033 64.4311 446.742C71.2488 462.109 76.951 478.962 85.22 493.153C92.341 505.371 101.882 512.125 112.008 519.383C124.92 528.653 144.522 539.645 151.426 557.711C156.571 571.173 139.839 591.187 134.125 600.514C128.149 610.258 123.648 621.807 117.481 631.207C107.749 646.04 91.9789 657.983 78.9586 667.096C66.3004 675.961 49.8623 685.774 35.5025 685.189C26.0648 684.808 24.2691 665.916 22.2555 656.688C19.3706 643.57 15.5349 631.814 7.29525 622.892C-1.09158 613.809 -10.9768 609.529 -21.3683 605.783C-26.7025 603.874 -32.7872 602.385 -37.5591 598.529C-42.8314 594.333 -42.9521 588.625 -43.482 581.188Z" stroke="#F1B170" stroke-width="2"/>
<path fill-rule="evenodd" clip-rule="evenodd" d="M-34.0631 570.034C-33.9869 553.317 -31.038 535.492 -22.2939 522.597C-15.0112 511.857 -3.61166 508.266 3.36008 497.287C8.88231 488.594 11.6933 476.391 15.3904 466.296C19.9121 453.926 26.3058 432.316 37.5498 428.023C48.5238 423.844 58.2303 447.646 62.438 457.064C68.5999 470.874 73.5881 485.513 79.8057 499.285C84.6765 510.09 90.633 517.054 98.5643 524.018C107.875 532.198 120.864 541.259 125.838 554.792C129.424 564.59 120.744 580.246 117.593 588.878C115.48 594.676 113.546 600.565 112.484 606.848C111.657 611.742 111.575 616.271 109.177 620.472C103.142 631.042 89.9083 632.421 80.9295 635.905C69.0048 640.529 56.3524 645.783 43.8731 646.786C36.203 647.413 32.2887 638.253 27.9108 631.809C22.7378 624.192 15.4139 618.713 9.01728 612.965C0.57549 605.367 -8.6116 600.641 -18.1156 595.8C-22.4025 593.616 -27.4376 591.473 -30.7592 587.131C-34.2275 582.628 -34.0896 576.067 -34.0631 570.034Z" stroke="#FF8062" stroke-width="2"/>
<path fill-rule="evenodd" clip-rule="evenodd" d="M-24.1707 560.109C-22.6551 546.069 -17.932 532.651 -9.95453 522.726C-3.83922 515.106 4.28221 510.816 9.19032 501.661C13.7636 493.126 16.9505 483.422 20.7278 474.298C24.7253 464.651 30.6644 448.527 39.8844 445.902C49.821 443.075 57.4754 459.34 61.7138 468.354C67.0684 479.746 71.1365 492.002 75.9241 503.786C79.5309 512.57 84.1318 520.603 89.5734 527.618C95.2805 535.013 103.02 542.095 105.907 552.264C108.46 561.271 103.684 572.167 102.841 581.3C101.939 591.057 103.519 601.306 98.5202 609.684C88.2106 626.962 62.3365 623.757 47.5446 624.127C32.9496 624.508 21.2153 613.935 9.40474 603.877C1.60346 597.237 -6.52091 591.613 -14.519 585.426C-22.6727 579.113 -25.5042 572.464 -24.1707 560.109Z" stroke="#5ACEF2" stroke-width="2"/>
<path fill-rule="evenodd" clip-rule="evenodd" d="M-14.9798 552.074C-10.4978 531.735 3.50069 520.925 13.508 505.554C21.6961 492.97 27.8357 466.911 41.6255 463.464C57.2816 459.552 66.6541 494.08 72.0971 507.403C78.1368 522.179 88.8935 534.198 93.3667 549.84C95.7179 558.05 93.6988 565.71 92.4468 573.916C91.0743 582.927 90.0427 592.139 85.305 599.392C75.9795 613.665 57.7665 613.566 44.6497 613.958C31.0715 614.366 19.0598 604.586 8.24131 594.824C-3.23258 584.486 -19.5705 572.933 -14.9798 552.074Z" stroke="#5ACEF2" stroke-width="2"/>
<path fill-rule="evenodd" clip-rule="evenodd" d="M-7.47292 546.559C-2.42256 532.068 8.1903 520.287 16.802 509.165C23.9897 499.894 31.7221 481.229 42.6814 479.899C55.5618 478.329 63.3683 498.26 68.4364 510.48C73.4246 522.489 80.6123 535.168 83.3743 548.348C86.2548 562.077 78.5845 580.567 71.2695 590.282C63.1107 601.116 49.7625 605.119 38.3089 604.686C26.3165 604.247 15.3129 595.294 6.23054 586.007C-3.47941 576.079 -13.3463 563.381 -7.47292 546.559Z" stroke="#FF8062" stroke-width="2"/>
</g>
</svg>
